<svg xmlns="http://www.w3.org/2000/svg"><symbol id="close" viewBox="0 0 40.86 43.71"><defs><style>.cls-1{fill:none;stroke:#231f20;stroke-linecap:round;stroke-linejoin:round;stroke-width:3px}</style></defs><path d="M4.43 5.85l32 32m-32 0l32-32" class="cls-1"/></symbol><symbol id="full-review" viewBox="0 0 40.86 43.71"><defs><style>.cls-1{fill:#f7ed44;stroke:#231f20;stroke-linecap:round;stroke-linejoin:round;stroke-width:3px}</style></defs><path d="M36.43 17.76l-7.88 8.29 2.06 11.48-9.97-5.27-9.81 5.59 1.72-11.55-8.12-8.03 11.03-1.85 4.79-10.56 5.1 10.4 11.08 1.5z" class="cls-1"/></symbol><symbol id="half-review" viewBox="0 0 40.86 43.71"><defs><style>.cls-1,.cls-2{fill:none;stroke:#231f20;stroke-linecap:round;stroke-linejoin:round;stroke-width:3px}.cls-2{fill:#f7ed44}</style></defs><path d="M20.64 32.44l9.97 5.39-2.06-11.73 7.88-8.46-11.08-1.54-4.92-10.24" class="cls-1"/><path d="M20.43 6.22l-.18-.36-4.79 10.56-11.03 1.85 8.12 8.03-1.72 11.55 9.6-5.47" class="cls-2"/></symbol><symbol id="review-star" viewBox="0 0 40.86 43.71"><defs><style>.cls-1{fill:none;stroke:#231f20;stroke-linecap:round;stroke-linejoin:round;stroke-width:3px}</style></defs><path d="M36.43 16.29l-7.88 8.29 2.06 11.49-9.97-5.28-9.81 5.6 1.72-11.55-8.12-8.03 11.03-1.86 4.79-10.56 5.1 10.4 11.08 1.5z" class="cls-1"/></symbol><symbol id="shopping-bag" viewBox="0 0 40.86 43.71"><defs><style>.cls-1{fill:none;stroke:#231f20;stroke-linecap:round;stroke-linejoin:round;stroke-width:3px}</style></defs><path d="M36.43 37.48h-32l3.58-22.84h23.14l5.28 22.84zM11.27 14.32s7.46-20.1 16.1.32" class="cls-1"/></symbol><symbol id="togglenav" viewBox="0 0 40.86 43.71"><defs><style>.cls-1{fill:none;stroke:#231f20;stroke-linecap:round;stroke-linejoin:round;stroke-width:3px}</style></defs><path d="M4.6 5.49h32m-32 16h32m-32 16h32" class="cls-1"/></symbol></svg>