<svg xmlns="http://www.w3.org/2000/svg"><symbol id="credit-card" viewBox="0 0 40.9 43.7"><path d="M37.1 38.3H4a1.4 1.4 0 0 1-1.5-1.5V15.6A1.4 1.4 0 0 1 4 14.1h33.1a1.5 1.5 0 0 1 1.5 1.5v21.2a1.5 1.5 0 0 1-1.5 1.5zm-31.6-3h30.1V17.1H5.5z"/><path d="M37.1 20.3H4a1.4 1.4 0 0 1-1.5-1.5v-3.2A1.4 1.4 0 0 1 4 14.1h33.1a1.5 1.5 0 0 1 1.5 1.5v3.2a1.5 1.5 0 0 1-1.5 1.5zm-31.6-3h30.1v-.2H5.5z"/></symbol><symbol id="close" viewBox="0 0 40.9 43.7"><path d="M36.4 39.4a1.4 1.4 0 0 1-1-.5l-32-32a1.5 1.5 0 0 1 0-2.1 1.5 1.5 0 0 1 2.1 0l32 32a1.5 1.5 0 0 1 0 2.1 1.6 1.6 0 0 1-1.1.5z"/><path d="M4.4 39.4a1.4 1.4 0 0 1-1-.5 1.4 1.4 0 0 1 0-2.1l32-32a1.5 1.5 0 1 1 2.1 2.1l-32 32a1.6 1.6 0 0 1-1.1.5z"/></symbol><symbol id="full-review" viewBox="0 0 40.9 43.7"><path fill="#f7ed44" d="M36.4 17.8L28.6 26l2 11.5-10-5.2-9.8 5.6 1.8-11.6-8.2-8 11.1-1.9 4.8-10.5 5.1 10.4 11 1.5z"/><path fill="#231f20" d="M10.8 39.4a1.1 1.1 0 0 1-.8-.3 1.7 1.7 0 0 1-.7-1.5L11 26.8l-7.6-7.5a1.4 1.4 0 0 1-.4-1.5 1.5 1.5 0 0 1 1.2-1l10.2-1.7 4.5-9.9a1.3 1.3 0 0 1 1.3-.8 1.6 1.6 0 0 1 1.4.8l4.7 9.7 10.3 1.4a1.2 1.2 0 0 1 1.2 1 1.4 1.4 0 0 1-.3 1.5l-7.3 7.7 1.9 10.8a1.3 1.3 0 0 1-.6 1.4 1.6 1.6 0 0 1-1.6.2L20.7 34l-9.1 5.2zM7.6 19.3l6 5.9a1.7 1.7 0 0 1 .4 1.3L12.8 35l7.1-4a1.4 1.4 0 0 1 1.4-.1l7.3 3.9-1.5-8.5a1.3 1.3 0 0 1 .4-1.3l5.8-6.2-8.2-1.1a1.3 1.3 0 0 1-1.1-.8l-3.7-7.5-3.5 7.6a1.4 1.4 0 0 1-1.1.9z"/></symbol><symbol id="half-review" viewBox="0 0 40.9 43.7"><path fill="#231f20" d="M30.6 39.3h-.7l-10-5.4a1.5 1.5 0 0 1 1.5-2.7l7.2 3.8-1.5-8.6a1.2 1.2 0 0 1 .4-1.3l5.9-6.4-8.3-1.1a1.5 1.5 0 0 1-1.1-.8L19.1 6.5a1.4 1.4 0 0 1 .7-2 1.5 1.5 0 0 1 2 .7l4.6 9.5 10.2 1.4a1.4 1.4 0 0 1 1.2 1 1.6 1.6 0 0 1-.3 1.6l-7.3 7.9 1.9 11a1.3 1.3 0 0 1-.6 1.4 1.6 1.6 0 0 1-.9.3z"/><path fill="#f7ed44" d="M20.4 6.2l-.1-.3-4.8 10.5-11.1 1.9 8.2 8-1.8 11.6 9.6-5.5"/><path fill="#231f20" d="M10.8 39.4a1.1 1.1 0 0 1-.8-.3 1.7 1.7 0 0 1-.7-1.5L11 26.8l-7.6-7.5a1.4 1.4 0 0 1-.4-1.5 1.5 1.5 0 0 1 1.2-1l10.2-1.7 4.5-9.9a1.3 1.3 0 0 1 1.3-.8 1.4 1.4 0 0 1 1.4.8l.2.4a1.5 1.5 0 0 1-.7 1.9L16.8 17a1.4 1.4 0 0 1-1.1.9l-8.1 1.4 6 5.9a1.7 1.7 0 0 1 .4 1.3L12.8 35l6.9-3.9a1.5 1.5 0 0 1 2 .5 1.6 1.6 0 0 1-.5 2.1l-9.6 5.5z"/></symbol><symbol id="review-star" viewBox="0 0 40.9 43.7"><path fill="#231f20" d="M10.8 37.9a1.1 1.1 0 0 1-.8-.3 1.6 1.6 0 0 1-.7-1.4L11 25.4l-7.6-7.5a1.4 1.4 0 0 1-.4-1.5 1.5 1.5 0 0 1 1.2-1.1l10.2-1.7 4.5-9.8a1.3 1.3 0 0 1 1.3-.9 1.6 1.6 0 0 1 1.4.8l4.7 9.7 10.3 1.4a1.5 1.5 0 0 1 .9 2.5l-7.3 7.8 1.9 10.7a1.5 1.5 0 0 1-.6 1.5 1.5 1.5 0 0 1-1.6.1l-9.2-4.9-9.1 5.2zM7.6 17.8l6 6a1.5 1.5 0 0 1 .4 1.3l-1.2 8.5 7.1-4.1a1.2 1.2 0 0 1 1.4 0l7.3 3.8-1.5-8.5a1.4 1.4 0 0 1 .4-1.3l5.8-6.1-8.2-1.1a1.8 1.8 0 0 1-1.1-.8l-3.7-7.6-3.5 7.7a1.5 1.5 0 0 1-1.1.8z"/></symbol><symbol id="shopping-bag" viewBox="0 0 40.9 43.7"><path d="M36.4 39h-32a1.6 1.6 0 0 1-1.1-.5 2 2 0 0 1-.4-1.3l3.6-22.8A1.6 1.6 0 0 1 8 13.1h23.2a1.4 1.4 0 0 1 1.4 1.2l5.3 22.8a1.4 1.4 0 0 1-.3 1.3 1.4 1.4 0 0 1-1.2.6zM6.2 36h28.3L30 16.1H9.3z"/><path d="M27.4 16.1a1.4 1.4 0 0 1-1.4-.9c-2.3-5.3-4.7-8.3-6.8-8.2s-5.8 5.8-6.5 7.8a1.6 1.6 0 0 1-2 .9 1.5 1.5 0 0 1-.8-1.9c.3-1 3.7-9.7 9.3-9.8 3.5-.1 6.6 3.2 9.6 10.1A1.5 1.5 0 0 1 28 16z"/></symbol><symbol id="togglenav" viewBox="0 0 40.9 43.7"><path d="M36.6 7h-32a1.5 1.5 0 0 1-1.5-1.5A1.5 1.5 0 0 1 4.6 4h32a1.5 1.5 0 0 1 1.5 1.5A1.5 1.5 0 0 1 36.6 7zm0 16h-32a1.5 1.5 0 1 1 0-3h32a1.5 1.5 0 0 1 0 3zm0 16h-32a1.5 1.5 0 0 1 0-3h32a1.5 1.5 0 0 1 0 3z"/></symbol><symbol id="warning" viewBox="0 0 40.9 43.7"><path fill="#ee3433" d="M20.4 36.8a16.4 16.4 0 1 1 16.4-16.4 16.4 16.4 0 0 1-16.4 16.4zm0-29.8a13.4 13.4 0 1 0 13.4 13.4A13.4 13.4 0 0 0 20.4 7z"/><path fill="#ee3433" d="M18.9 26.8a1.3 1.3 0 1 1 1.3 1.4 1.3 1.3 0 0 1-1.3-1.4zm.5-3.2l-.3-10.7h2.2L21 23.6z"/></symbol></svg>