<svg xmlns="http://www.w3.org/2000/svg" id="Layer_1" viewBox="0 0 256 256" width="256" height="256"><defs><style>.cls-1{fill:#151414}.cls-2{fill:#f2c250}</style></defs><path d="M0-.67h256v251.38H0z" class="cls-1"/><path d="M73.39 193a5.23 5.23 0 0 0 2.74-.71c.79-.48 1.18-1.53 1.18-3.15v-44.79h10.14v45.42a23.77 23.77 0 0 1-.61 5.78 9.31 9.31 0 0 1-2.07 4.07 8.81 8.81 0 0 1-4 2.43 21.68 21.68 0 0 1-6.35.79 14.43 14.43 0 0 1-3.22-.33v-9.81a5.49 5.49 0 0 0 2.19.3zm3.92-55.39v-9.8h10.14v9.8zm43.91 50.06v-6H121a12.34 12.34 0 0 1-5 5.45 13 13 0 0 1-6.29 1.67 15.33 15.33 0 0 1-6.67-1.25 10 10 0 0 1-4.1-3.54 15.17 15.17 0 0 1-2.1-5.62 40.22 40.22 0 0 1-.61-7.33v-26.7h10.14v24.47c0 3.58.47 6.25 1.43 8s2.64 2.64 5.07 2.64q4.13 0 6-2.89t1.86-9.51v-22.71h10.14v43.32zm26.98-43.32v6h.22a12.57 12.57 0 0 1 5-5.49 12.76 12.76 0 0 1 6.28-1.72 14.89 14.89 0 0 1 6.67 1.3 10.29 10.29 0 0 1 4.11 3.6 15.17 15.17 0 0 1 2.1 5.62 40.3 40.3 0 0 1 .61 7.33v26.64h-10.14v-24.42c0-3.58-.47-6.24-1.42-8s-2.65-2.64-5.07-2.64q-4.14 0-6 2.89T148.7 165v22.7h-10.13v-43.35zm43.8-16.5v32.09l12.78-15.59h12l-13.92 15.92 15.49 27.4H206l-10.14-19.35-3.86 4.44v14.91h-10.17v-59.82zM61.39 210.92v8H54v21.44c0 2 .28 3.36.85 4s1.72 1 3.43 1a14.41 14.41 0 0 0 1.64-.08 13 13 0 0 0 1.5-.25v9.22a22.61 22.61 0 0 1-2.85.33c-1 0-2.07.08-3.07.08a25.4 25.4 0 0 1-4.46-.37 9.43 9.43 0 0 1-3.72-1.47 7.4 7.4 0 0 1-2.53-3.1 12.68 12.68 0 0 1-.93-5.28v-25.55h-6.17v-8h6.14v-13H54v13zm14.49 0V219H76a15.49 15.49 0 0 1 2-3.76 13.67 13.67 0 0 1 2.79-2.93 12.81 12.81 0 0 1 3.35-1.89 10.65 10.65 0 0 1 3.72-.67 6.84 6.84 0 0 1 2.21.42v11.06a16.72 16.72 0 0 0-1.71-.29 14.44 14.44 0 0 0-1.93-.13 9.48 9.48 0 0 0-4.71 1.09 8.62 8.62 0 0 0-3.11 3 13.21 13.21 0 0 0-1.68 4.39 28.3 28.3 0 0 0-.5 5.45v19.53H66.25v-43.35zM119 254.25v-6h-.21a12.3 12.3 0 0 1-5 5.45 12.9 12.9 0 0 1-6.28 1.67 15.33 15.33 0 0 1-6.67-1.25 10 10 0 0 1-4.11-3.56 15.35 15.35 0 0 1-2.11-5.62 41.18 41.18 0 0 1-.6-7.33v-26.69h10.14v24.47c0 3.58.47 6.24 1.42 8s2.64 2.65 5.07 2.65q4.14 0 6-2.9c1.24-1.93 1.86-5.09 1.86-9.51v-22.71h10.13v43.33zm27-43.33v6h.21a12.51 12.51 0 0 1 11.28-7.21 14.91 14.91 0 0 1 6.68 1.3 10.2 10.2 0 0 1 4.1 3.6 15.18 15.18 0 0 1 2.11 5.62 41.21 41.21 0 0 1 .61 7.33v26.65h-10.15v-24.43c0-3.58-.48-6.24-1.43-8s-2.64-2.64-5.07-2.64q-4.14 0-6 2.89t-1.86 9.51v22.71h-10.13v-43.33zm43.75-16.5v32.09l12.78-15.59h12l-13.93 15.93 15.5 27.4h-12.28l-10.14-19.36-3.93 4.44v14.92h-10.14v-59.83z" class="cls-2"/></svg>