<svg xmlns="http://www.w3.org/2000/svg" id="Layer_1" viewBox="0 0 15.58 15.94" width="15.58" height="15.94"><defs><style>.cls-1{fill:#151414}.cls-2{fill:#f2c250}</style></defs><path d="M-.1.11h16v15.71h-16z" class="cls-1"/><path d="M4.49 12.21a.31.31 0 0 0 .17 0s.08-.09.08-.2V9.17h.63V12a1.28 1.28 0 0 1 0 .36.58.58 0 0 1-.13.26.7.7 0 0 1-.24.15 1.5 1.5 0 0 1-.4.05h-.2v-.62a.24.24 0 0 0 .09.01zm.25-3.46v-.61h.63v.61zm2.74 3.13v-.38a.8.8 0 0 1-.31.34.83.83 0 0 1-.4.11.93.93 0 0 1-.41-.08.63.63 0 0 1-.26-.22 1 1 0 0 1-.1-.35 2.19 2.19 0 0 1 0-.46V9.17h.63v1.53a1.09 1.09 0 0 0 .09.5.34.34 0 0 0 .32.17.4.4 0 0 0 .37-.18 1.12 1.12 0 0 0 .12-.6V9.17h.63v2.71zm1.69-2.71v.38a.8.8 0 0 1 .31-.34.73.73 0 0 1 .4-.11 1 1 0 0 1 .41.08.58.58 0 0 1 .26.23.85.85 0 0 1 .13.35 2.09 2.09 0 0 1 0 .45v1.67h-.58v-1.53a1.09 1.09 0 0 0-.09-.5.33.33 0 0 0-.32-.16.43.43 0 0 0-.38.18 1.2 1.2 0 0 0-.11.59v1.42h-.63V9.17zm2.73-1.03v2l.8-1h.75l-.87 1 1 1.71h-.77l-.63-1.21-.28.36v.93h-.63V8.14zm-8.16 5.19v.5h-.46v1.34a.44.44 0 0 0 .05.25.3.3 0 0 0 .22.07h.19V16h-.37a1.27 1.27 0 0 1-.28 0 .46.46 0 0 1-.23 0 .43.43 0 0 1-.16-.19.81.81 0 0 1-.06-.33v-1.6h-.38v-.5h.38v-.81h.64v.81zm.91 0v.51a.9.9 0 0 1 .12-.24 1 1 0 0 1 .23-.18 1.13 1.13 0 0 1 .21-.12.62.62 0 0 1 .23 0h.14v.7H5.3a.54.54 0 0 0-.3 0 .58.58 0 0 0-.2.18 1 1 0 0 0-.1.28 1.79 1.79 0 0 0 0 .34V16h-.65v-2.67zM7.34 16v-.38A.8.8 0 0 1 7 16a.83.83 0 0 1-.4.11 1 1 0 0 1-.39-.11.63.63 0 0 1-.21-.19 1 1 0 0 1-.13-.35 2.19 2.19 0 0 1 0-.46v-1.67h.63v1.53a1.06 1.06 0 0 0 .09.5.34.34 0 0 0 .32.17.43.43 0 0 0 .38-.18 1.25 1.25 0 0 0 .11-.6v-1.42H8V16zM9 13.33v.38a.8.8 0 0 1 .31-.34.83.83 0 0 1 .4-.11.93.93 0 0 1 .41.08.58.58 0 0 1 .26.23.85.85 0 0 1 .13.35 2.09 2.09 0 0 1 0 .45V16H10v-1.49a1.09 1.09 0 0 0-.09-.5.33.33 0 0 0-.32-.16.4.4 0 0 0-.37.18 1.11 1.11 0 0 0-.12.59V16h-.67v-2.67zm2.76-1.03v2l.8-1h.75l-.87 1 1 1.71h-.77L12 14.83l-.25.28V16h-.63v-3.7z" class="cls-2"/></svg>