<svg xmlns="http://www.w3.org/2000/svg" id="Layer_1" viewBox="0 0 32 32" width="32" height="32"><defs><style>.cls-1{fill:#f15c5d}.cls-2{fill:#f9ee41}</style></defs><path d="M-.03 0h32v31.42h-32z" class="cls-1"/><path d="M9.14 24.21a.64.64 0 0 0 .34-.09q.15-.09.15-.39v-5.6h1.27v5.67a3.13 3.13 0 0 1-.08.73 1.23 1.23 0 0 1-.26.51 1.14 1.14 0 0 1-.49.3 2.6 2.6 0 0 1-.8.1 2.35 2.35 0 0 1-.4 0v-1.27a.7.7 0 0 0 .27.04zm.49-6.92v-1.23h1.27v1.23zm5.49 6.25v-.75a1.59 1.59 0 0 1-.62.68 1.64 1.64 0 0 1-.79.21 1.81 1.81 0 0 1-.83-.16 1.24 1.24 0 0 1-.52-.44 2.08 2.08 0 0 1-.26-.7 5.25 5.25 0 0 1-.08-.92v-3.33h1.27v3.06a2.18 2.18 0 0 0 .18 1 .66.66 0 0 0 .63.33.8.8 0 0 0 .75-.37 2.19 2.19 0 0 0 .21-1.15v-2.87h1.26v5.41zm3.37-5.41v.75a1.59 1.59 0 0 1 .62-.68 1.55 1.55 0 0 1 .79-.22 1.94 1.94 0 0 1 .83.16 1.34 1.34 0 0 1 .52.45 2.06 2.06 0 0 1 .26.71 5.05 5.05 0 0 1 .08.91v3.33h-1.24v-3.06a2.18 2.18 0 0 0-.18-1 .66.66 0 0 0-.63-.33.8.8 0 0 0-.75.37 2.19 2.19 0 0 0-.24 1.18v2.84h-1.26v-5.41zM24 16.06v4l1.6-1.95h1.5l-1.74 2 1.93 3.42h-1.57l-1.27-2.42-.49.56v1.86h-1.27v-7.47zM7.64 26.45v1h-.93v2.69a.83.83 0 0 0 .11.5.57.57 0 0 0 .43.12h.2a.58.58 0 0 0 .19 0v1.15l-.36.05H6.9a3.33 3.33 0 0 1-.56-.05 1.17 1.17 0 0 1-.46-.18.89.89 0 0 1-.32-.39 1.57 1.57 0 0 1-.11-.66v-3.2h-.77v-1h.77v-1.65h1.26v1.62zm1.81 0v1a2 2 0 0 1 .26-.45 1.76 1.76 0 0 1 .35-.37 1.44 1.44 0 0 1 .42-.23 1.22 1.22 0 0 1 .46-.09 1 1 0 0 1 .28.05v1.39h-.46a1.22 1.22 0 0 0-.59.14 1 1 0 0 0-.38.37 1.58 1.58 0 0 0-.21.55 3.64 3.64 0 0 0-.07.68v2.44H8.25v-5.48zm5.39 5.41v-.75a1.61 1.61 0 0 1-.63.68 1.63 1.63 0 0 1-.78.21 1.88 1.88 0 0 1-.84-.16 1.16 1.16 0 0 1-.51-.44 1.83 1.83 0 0 1-.27-.7 5.29 5.29 0 0 1-.07-.92v-3.33H13v3.06a2.34 2.34 0 0 0 .17 1 .66.66 0 0 0 .64.33.84.84 0 0 0 .75-.36 2.35 2.35 0 0 0 .23-1.19v-2.84h1.27v5.41zm3.38-5.41v.75a1.55 1.55 0 0 1 .63-.68 1.49 1.49 0 0 1 .78-.22 2 2 0 0 1 .84.16 1.33 1.33 0 0 1 .51.46 1.93 1.93 0 0 1 .26.7 5.05 5.05 0 0 1 .08.91v3.33h-1.25v-3.05a2.15 2.15 0 0 0-.18-1 .66.66 0 0 0-.63-.33.82.82 0 0 0-.75.36 2.22 2.22 0 0 0-.23 1.16v2.83H17v-5.38zm5.47-2.06v4l1.59-1.95h1.5l-1.74 2L27 31.86h-1.56l-1.26-2.42-.49.56v1.86h-1.27v-7.47z" class="cls-2"/></svg>